{
    "asset" : {
        "generator" : "Khronos glTF Blender I/O v1.1.45",
        "version" : "2.0"
    },
    "scene" : 0,
    "scenes" : [
        {
            "name" : "Scene",
            "nodes" : [
                0
            ]
        }
    ],
    "nodes" : [
        {
            "mesh" : 0,
            "name" : "Sphere",
            "scale" : [
                1,
                4.059999942779541,
                1
            ]
        }
    ],
    "materials" : [
        {
            "alphaMode" : "BLEND",
            "doubleSided" : true,
            "emissiveFactor" : [
                0,
                0,
                0
            ],
            "name" : "Material.001",
            "pbrMetallicRoughness" : {
                "baseColorFactor" : [
                    0.6503126621246338,
                    0.6708056330680847,
                    0.8000000715255737,
                    0.16152450442314148
                ],
                "metallicFactor" : 0,
                "roughnessFactor" : 0.5
            }
        }
    ],
    "meshes" : [
        {
            "name" : "Sphere",
            "primitives" : [
                {
                    "attributes" : {
                        "POSITION" : 0,
                        "NORMAL" : 1,
                        "TEXCOORD_0" : 2
                    },
                    "indices" : 3,
                    "material" : 0
                }
            ]
        }
    ],
    "accessors" : [
        {
            "bufferView" : 0,
            "componentType" : 5126,
            "count" : 992,
            "max" : [
                1.000000238418579,
                0.9133683443069458,
                1.0000003576278687
            ],
            "min" : [
                -0.9999998211860657,
                7.549790126404332e-08,
                -1
            ],
            "type" : "VEC3"
        },
        {
            "bufferView" : 1,
            "componentType" : 5126,
            "count" : 992,
            "type" : "VEC3"
        },
        {
            "bufferView" : 2,
            "componentType" : 5126,
            "count" : 992,
            "type" : "VEC2"
        },
        {
            "bufferView" : 3,
            "componentType" : 5123,
            "count" : 1440,
            "type" : "SCALAR"
        }
    ],
    "bufferViews" : [
        {
            "buffer" : 0,
            "byteLength" : 11904,
            "byteOffset" : 0
        },
        {
            "buffer" : 0,
            "byteLength" : 11904,
            "byteOffset" : 11904
        },
        {
            "buffer" : 0,
            "byteLength" : 7936,
            "byteOffset" : 23808
        },
        {
            "buffer" : 0,
            "byteLength" : 2880,
            "byteOffset" : 31744
        }
    ],
    "buffers" : [
        {
            "byteLength" : 34624,
            "uri" : "capsglass.bin"
        }
    ]
}
